<?xml version="1.0" encoding="iso-8859-1"?>
<!-- Generator: Adobe Illustrator 19.0.0, SVG Export Plug-In . SVG Version: 6.00 Build 0)  -->
<svg version="1.1" id="Layer_1" xmlns="http://www.w3.org/2000/svg" xmlns:xlink="http://www.w3.org/1999/xlink" x="0px" y="0px"
	 viewBox="0 0 512 512" style="enable-background:new 0 0 512 512;" xml:space="preserve">
<path style="fill:#FA6E51;" d="M0,256.006C0,397.402,114.606,512.004,255.996,512C397.394,512.004,512,397.402,512,256.006
	C512.009,114.61,397.394,0,255.996,0C114.606,0,0,114.614,0,256.006z"/>
<path style="fill:#E8573F;" d="M512,256.005c0.001-21.555-2.694-42.476-7.709-62.475c-0.11-0.106-0.211-0.219-0.323-0.323
	c-0.541-0.576-91.175-91.212-91.751-91.751c-6.811-7.254-16.413-11.856-27.124-11.856H126.908
	c-20.571,0-37.308,16.737-37.308,37.307v258.186c0,10.709,4.599,20.309,11.852,27.12c0.541,0.577,91.179,91.214,91.756,91.756
	c0.106,0.112,0.22,0.214,0.325,0.325c19.996,5.013,40.911,7.708,62.463,7.707C397.394,512.004,512,397.401,512,256.005z"/>
<g>
	<path style="fill:#F4F6F9;" d="M385.092,89.6H126.908c-20.571,0-37.308,16.737-37.308,37.308v258.186
		c0,20.57,16.737,37.307,37.308,37.307h258.186c20.57,0,37.307-16.737,37.307-37.308V126.908
		C422.4,106.337,405.663,89.6,385.092,89.6z M408.533,385.092c0,12.926-10.515,23.441-23.441,23.441H126.908
		c-12.926,0-23.441-10.515-23.441-23.441V126.908c0-12.926,10.515-23.441,23.441-23.441h258.186c12.925,0,23.44,10.515,23.44,23.441
		V385.092z"/>
	<path style="fill:#F4F6F9;" d="M201.279,186.667l-42.346,136.843h17.594l12.686-42.433h43.364l13.092,42.433h17.999L221.53,186.667
		H201.279z M192.482,267.673l11.66-38.17c2.457-8.526,4.501-17.866,6.339-26.596h0.62c1.838,8.526,3.883,17.667,6.546,26.801
		l11.86,37.965L192.482,267.673L192.482,267.673z"/>
	<path style="fill:#F4F6F9;" d="M316.249,223.21c-26.183,0-42.752,22.334-42.752,52.586c0,29.849,16.569,49.538,45.003,49.538
		c13.298,0,23.527-2.842,29.454-5.684l-2.864-12.386c-5.727,2.644-13.092,4.673-24.132,4.673c-15.955,0-30.479-8.937-30.686-34.925
		h62.182c0.413-2.029,0.612-4.667,0.612-8.527C353.067,249.199,344.89,223.21,316.249,223.21z M290.478,264.631
		c1.226-12.796,8.177-28.831,24.133-28.831c16.574,0,22.095,15.023,21.888,28.831H290.478L290.478,264.631z"/>
</g>
<g>
</g>
<g>
</g>
<g>
</g>
<g>
</g>
<g>
</g>
<g>
</g>
<g>
</g>
<g>
</g>
<g>
</g>
<g>
</g>
<g>
</g>
<g>
</g>
<g>
</g>
<g>
</g>
<g>
</g>
</svg>
